<?xml version="1.0" encoding="UTF-8"?>
<svg id="Layer_2" data-name="Layer 2" xmlns="http://www.w3.org/2000/svg" viewBox="0 0 378.76 379.49">
  <g id="Layer_1-2" data-name="Layer 1">
    <g>
      <path d="M0,109.69v-5.18c.57-22.6,9.7-34.33,24.43-50.02,20.51-21.84,43.65-47.75,73.75-21.85,11.15,9.6,46.13,43.45,52.8,54.61,10.51,17.6,4.84,32.75-7.62,46.9-7.4,8.4-16.71,16.28-24.73,24.16,9.07,19.95,23.01,37.78,38.04,53.61,17.96,18.92,39.65,36.5,63.12,48.02,18.67-14.34,32.35-42.57,60.28-36.59,7.51,1.61,13.26,5.84,18.87,10.77,13.6,11.95,32.01,30.51,44.08,44.07,30.4,34.16,2.04,55.41-22.26,79.25-13.28,13.03-22.76,20.45-42.59,21.86-51.75,3.68-126.96-43.39-164.83-76.64C65.4,260.56,1.65,175.38,0,109.69ZM69.43,43.93c-1.7.36-5.73,2.74-7.22,3.89-7.26,5.59-33.61,32.64-36.86,40.18-12.49,28.99,12.14,81.67,27.12,107.37,32.25,55.32,82.04,104.37,138.16,135.18,24.45,13.42,73.23,35.91,100.28,23.72,7.72-3.48,31.07-27.16,37.29-34.57,8.97-10.66,8.06-16.48-.74-26.7-10.53-12.24-31.06-33.02-43.34-43.33-4.7-3.95-8.19-6.17-14.79-5.12-7.82,1.25-29.02,27.73-37.1,34-6.66,5.16-11.66,5.57-19.38,2.37-38.7-16.04-92.28-69.43-111.02-106.76-4.11-8.18-8.82-18.17-2.88-26.65,5.87-8.38,19.5-17.89,27.01-26.32,8.48-9.52,13.2-15.09,3.7-26.7-13.19-16.12-32.9-30.61-46.68-46.65-3.82-3.18-8.56-4.94-13.55-3.9Z" style="fill: #013978;"/>
      <path d="M212.62.06c8.2.97,22.64,5.38,30.77,8.12,64.16,21.66,116.34,78.07,132.31,144,1.29,5.34,4.55,17.14,2.28,21.74-3.59,7.27-14.77,7.9-18.99.89-2.76-4.59-5.43-22.45-7.64-29.39-17.2-54.04-62.26-99.48-116.11-117.23-9.1-3-19.48-4.01-27.97-6.85-11.07-3.7-10.62-17.46.16-21.27,1.68.14,3.53-.19,5.19,0Z" style="fill: #013978;"/>
      <path d="M204.26,69.12c4.6-.95,13.96,1.79,18.72,3.16,40.68,11.71,74.67,46.5,84.99,87.61.78,3.11,2.35,8.72,2.45,11.68.43,12.88-16.97,16.06-21.3,3.46-2.14-6.22-2.92-13.16-5.38-19.81-10.46-28.25-35.22-52.01-63.88-61.31-9.32-3.02-26.35-2.74-23.37-17.03.66-3.15,4.62-7.12,7.77-7.77Z" style="fill: #013978;"/>
    </g>
  </g>
</svg>