<?xml version="1.0" encoding="UTF-8"?>
<svg id="Layer_2" data-name="Layer 2" xmlns="http://www.w3.org/2000/svg" viewBox="0 0 383.22 383.25">
  <g id="Layer_1-2" data-name="Layer 1">
    <g>
      <path d="M193.1,0l188.98,188.65c.84,2.25.67,4.2-.31,6.38s-30,30.78-32.21,32.16c-1.46.91-2,1.89-4.13,1.89L191.22,77.12,40.37,227.91c-3.09,1.15-4.5.34-7.09-1.1-1.99-1.1-31.12-30.21-32.12-32.25-.62-1.28-1.23-2.53-1.16-4.01l43.12-44.52c17.34,18.57,43.46,17.98,57.28-4.06,4.38-6.98,8.43-21.49,13.34-27.08,4.14-4.7,16.37-10.17,21.72-14.96,16.54-14.8,15.93-32.98,4.06-50.52L189.35,0h3.74Z" style="fill: #013978;"/>
      <path d="M383.22,302.41v3.74c-4.12,10.56-20.51,14.56-26.95,22.08s-10.71,33.36-22.71,33.04c-11.47-.3-15.64-25.37-22.18-33.05-5.7-6.69-26.96-13.97-26.96-23.94s22.16-17.29,27.46-23.82c4.64-5.71,10.8-29.14,17.18-31.85,17.28-5.84,18.94,22.41,27.57,32.13,6.66,7.51,22.39,11.29,26.61,21.67Z" style="fill: #013978;"/>
      <path d="M54.99,383.25c-6.05-1.16-9.07-7.57-9.33-13.12l.33-120.14,12.02-7.45L191.33,109.35l122.21,121.68c-10.03,7.09-13.2,27.02-19.64,34.46-11.96,13.84-33.97,12.76-31.93,41.76,1.7,24.1,21.59,23.81,31.84,36.27,9.82,11.95,10.4,34.47,31.01,39.72h-89.82v-94.69c0-48.65-85.4-62.7-90.56,4.51-2.21,28.81,1,61.09.73,90.18H54.99Z" style="fill: #013978;"/>
      <path d="M46.14,99.79c-7.46-8.63-33.25-14.4-29.5-29.57,2.45-8.84,23.46-16.42,29.3-23.12,8.28-9.5,11.05-40.26,28.34-36.45,8.75,1.93,15.33,28.93,21.49,36.15,7.87,9.23,30.91,14.02,29.63,28.84-1.52,9.35-23.56,17.26-29.62,24.29-6.63,7.68-11.89,33.31-21.55,36.09-16.95,4.88-20.29-27.2-28.09-36.23Z" style="fill: #013978;"/>
      <path d="M212.56,318.13h-13.85c-11.17,0-11.17,22.46,0,22.46h13.85v42.67h-44.91v-96.19c0-9.71,14.46-18.03,23.6-17.62,25.09,1.14,21.55,31.33,21.31,48.68Z" style="fill: #013978;"/>
      <path d="M313.61,87.58l-58.39-58.39h50.53c2.67,0,7.86,6.89,7.86,9.36v49.03Z" style="fill: #013978;"/>
    </g>
  </g>
</svg>