<?xml version="1.0" encoding="UTF-8"?>
<svg id="Layer_2" data-name="Layer 2" xmlns="http://www.w3.org/2000/svg" viewBox="0 0 371.05 378.14">
  <g id="Layer_1-2" data-name="Layer 1">
    <g>
      <path d="M19.02,339.89c110.85,2.41,222.2-3.21,333,0,6.92.2,16.71-.4,18.58,8.8.64,3.13.6,18.23-.18,21.23-1.16,4.45-5.74,6.43-9.4,8.23H10.02c-3.66-1.79-8.23-3.77-9.4-8.23-.78-2.99-.82-18.1-.18-21.23,1.63-8.03,11.72-9.8,18.58-8.8Z" style="fill: #7f8284;"/>
      <path d="M51.27,301.64c4.24-.04,8.51.02,12.75,0,29.73-.15,59.51.03,89.25,0,21.49-.02,43.01-.02,64.5,0,29.74.03,59.52-.15,89.25,0,4.24.02,8.51-.04,12.75,0,6.31.06,19.82-1.08,24.93.95,11.98,4.77,5.82,27.3,7.32,37.3-110.8-3.21-222.15,2.41-333,0,1.51-10-4.66-32.54,7.32-37.3,5.11-2.03,18.62-.89,24.93-.95Z" style="fill: #bcc2c6;"/>
      <path d="M319.77,301.64c-4.24-.04-8.51.02-12.75,0v-142.87c-14.57-150.08-228.41-150.04-242.99,0v142.87c-4.25.02-8.52-.04-12.76,0v-144.37C58.15,72.16,140.17,14.09,223.18,37.85c53.5,15.31,92.43,63.93,96.58,119.42v144.37Z" style="fill: #f97b76;"/>
      <path d="M350.34,83.55c8.5-1.23,11.17,9.04,4.96,12.48-2.25,1.25-21.97,6.7-24.67,6.86-8.55.49-10.91-8.42-5.11-11.89,2.33-1.4,21.63-6.99,24.83-7.45Z" style="fill: #f97b76;"/>
      <path d="M53.26,91.9c4.62,4.53.85,11.56-6.1,11.01-3.45-.27-20.59-5.3-23.93-6.85-7.43-3.46-4.43-12.44,2.89-12.71,5.56,2.7,23.47,4.95,27.14,8.55Z" style="fill: #f97b76;"/>
      <path d="M119.31.3c3.83-.88,5.01.2,7.35,2.83,2.15,2.42,12.3,17.17,13.28,19.71,2.58,6.7-3.36,12.33-9.21,8.46-1.48-.98-14.33-19.56-15.12-21.62-1.4-3.63-.55-8.41,3.7-9.38Z" style="fill: #f97b76;"/>
      <path d="M61.56,26.55c1.73-.4,3.76-.41,5.44.25,5.02,4.85,16.1,10,20.29,14.95s.11,12.79-7.31,10.31c-1.89-.63-18.81-12.97-20.49-14.76-3.2-3.42-2.55-9.68,2.07-10.75Z" style="fill: #f97b76;"/>
      <path d="M318.01,37.37c-1.22,1.33-19.48,14.56-20.7,14.92-7.07,2.11-12.42-5.35-5.67-11.68,1.86-1.75,17.61-13.43,19.1-13.9,7.69-2.42,12.03,5.47,7.28,10.65Z" style="fill: #f97b76;"/>
      <path d="M254.32,1.02c5-1.04,8.8,4.12,7.36,8.9-.37,1.22-12.28,19.06-13.51,20.24-5.55,5.36-13.39.45-10.94-6.44.95-2.67,10.3-16.47,12.48-19.03,1.18-1.38,2.75-3.3,4.61-3.69Z" style="fill: #f97b76;"/>
      <path d="M307.02,301.64c-29.73-.15-59.51.03-89.25,0-.8-12.25,1.06-25.8.03-37.9-1.37-15.93-13.49-13.62-25.53-13.85v-52.5c8.72,9.6,12.72,15.42,26.26,19.12,8.64,2.36,28.17,2.95,37.13,1.9,2.81-.33,4.26-1.73,5.97-3.78l.23-81.95c-.46-2.35-3.29-3.9-5.51-4.24-6.01-.92-20.49-.49-26.99-.08-22.67,1.41-38.84,15.73-43.11,37.9-.3,1.58.82,2.62-1.48,1.14-2.68-21.98-20.33-37.6-42.34-39.04-6.6-.43-21.63-.85-27.74.08-2.22.34-5.05,1.88-5.51,4.24l.23,81.95c1.77,2.42,3.75,3.43,6.73,3.77,22.96,2.6,49.2-.09,62.62-21v52.5c-12.04.23-24.16-2.08-25.53,13.85-1.04,12.1.83,25.65.03,37.9-29.74.03-59.52-.15-89.25,0v-142.87c14.59-150.04,228.43-150.08,242.99,0v142.87ZM184.58,58.07c-7.98,1.45-7.48,12.08,2.16,13.23,28.54,3.43,41.61,6.05,64.05,25.2,2.43,2.07,6.78,7.77,9.18,8.82,5.66,2.46,10.79-4.01,7.96-9.46-.87-1.68-8.82-9.28-10.76-10.99-13.18-11.58-31.15-20.76-48.37-24.38-5.75-1.21-18.87-3.39-24.22-2.42Z" style="fill: #e54c3c;"/>
      <path d="M178.77,249.89c4.47-.08,9.03-.08,13.5,0,12.04.23,24.16-2.08,25.53,13.85,1.04,12.1-.83,25.65-.03,37.9-21.49-.02-43.01-.02-64.5,0,.8-12.25-1.06-25.8-.03-37.9,1.37-15.93,13.49-13.62,25.53-13.85Z" style="fill: #bf3a2b;"/>
      <path d="M192.27,197.39c-.24-.26-.49-.51-.75-.75-1.54-5.2-4.58-10.42-6-15.75-.95-3.55-.19-8.94-.75-13.5,2.29,1.49,1.17.44,1.48-1.14,4.27-22.17,20.44-36.49,43.11-37.9,6.5-.4,20.98-.84,26.99.08,2.22.34,5.05,1.88,5.51,4.24l-.23,81.95c-1.71,2.05-3.16,3.45-5.97,3.78-8.96,1.05-28.49.46-37.13-1.9-13.53-3.7-17.54-9.52-26.26-19.12Z" style="fill: #f19b1f;"/>
      <path d="M184.77,167.39c.56,4.56-.2,9.95.75,13.5-2.34,4.8-3.28,11.12-6,15.75l-.75.75c-13.42,20.91-39.67,23.6-62.62,21-2.98-.34-4.97-1.35-6.73-3.77l-.23-81.95c.46-2.35,3.29-3.9,5.51-4.24,6.11-.94,21.14-.51,27.74-.08,22.01,1.43,39.66,17.05,42.34,39.04Z" style="fill: #efc319;"/>
      <path d="M184.58,58.07c5.36-.97,18.47,1.21,24.22,2.42,17.22,3.62,35.19,12.8,48.37,24.38,1.94,1.7,9.88,9.31,10.76,10.99,2.83,5.45-2.3,11.92-7.96,9.46-2.41-1.04-6.75-6.75-9.18-8.82-22.44-19.15-35.51-21.78-64.05-25.2-9.64-1.16-10.14-11.78-2.16-13.23Z" style="fill: #fefefe;"/>
      <path d="M191.52,196.64c.06.22.57.49.75.75v52.5c-4.47-.08-9.03-.08-13.5,0v-52.5c.16-.25.57-.45.75-.75,2.72-4.63,3.66-10.95,6-15.75,1.42,5.33,4.46,10.55,6,15.75Z" style="fill: #802f34;"/>
      <path d="M192.27,197.39c-.18-.26-.69-.53-.75-.75.26.24.51.49.75.75Z" style="fill: #bf3a2b;"/>
      <path d="M178.77,197.39l.75-.75c-.18.3-.59.5-.75.75Z" style="fill: #bf3a2b;"/>
    </g>
  </g>
</svg>