<?xml version="1.0" encoding="UTF-8"?>
<svg id="Layer_2" data-name="Layer 2" xmlns="http://www.w3.org/2000/svg" viewBox="0 0 383.09 384">
  <g id="Layer_1-2" data-name="Layer 1">
    <g>
      <path d="M224.47,0c4.06,2.41,6.26,3.48,7.85,8.26s4.39,27.2,6.39,28.85l28.75,11.64c11.12-3.81,25.2-23.47,37.12-14.64l44.48,44.68c2.19,3.58,2.44,6.76,1,10.68-2.73,7.42-13.09,17.02-15.73,24-.44,1.17-.68,1.62-.45,2.97.41,2.36,5.59,11.52,6.98,14.83,1.79,4.27,2.87,8.92,4.89,13.1,10.89,5.07,35.18.94,36.7,16.48,1.94,19.82-1.24,43.26-.39,63.43-1.56,4.18-3.62,6.42-7.89,7.85-4.61,1.54-27.14,4.4-28.8,6.4l-11.62,28.81c2.8,8.16,17.28,22.05,17.27,30.05,0,1.92-.66,3.68-1.41,5.4l-45.85,46.32c-1.72,1.13-4.26,1.97-6.33,1.97-7.54,0-21.45-13.68-28.81-16.94l-.8-2.2.06-68.28c69.42-76.14,2.33-196.93-99.58-174.77-79.03,17.18-108.03,115.94-53.16,174.77l.06,68.28-.8,2.2c-10.43,4.45-24.37,22.84-35.94,14.28-14.72-10.89-28.98-32.04-43.79-43.87-2.95-4-3.36-7.36-1.47-12.02,2.93-7.23,12.94-16.66,15.52-23.47.44-1.17.68-1.62.45-2.97-.41-2.36-5.59-11.52-6.98-14.83-1.79-4.27-2.87-8.92-4.89-13.1-2.27-1.91-23.42-4.35-28.42-6.02s-7.76-5.16-8.28-10.46c-1.93-19.72,1.38-42.8.21-62.87.84-1.62,1.6-4.15,2.81-5.44,4.61-4.93,24.19-5.78,31.48-8.21,1.25-.42,2.05-.29,2.85-1.64,1.48-2.52,2.86-8.98,4.25-12.24,2.31-5.39,5.23-10.52,7.1-16.08-3.76-11.08-23.43-25.25-14.61-37.2,10.88-14.75,31.97-29.03,43.79-43.87,4.19-3.1,7.76-3.4,12.5-1.24,5.05,2.3,21.16,15.66,24.62,15.88l28.75-11.64c1.99-1.66,4.85-24.23,6.39-28.85s3.79-5.85,7.85-8.26h65.87Z" style="fill: #013978;"/>
      <path d="M169.83,384c-4.45-2.38-7.4-4.72-8.25-10.11l-.1-117.65c-11.54-6.59-21.86-14.14-29.24-25.45-16.88-25.88-15.49-58.92,3.18-83.4,5.55-7.28,28.3-30.14,34.06-12.4l7.18,48.68,29.83.04,6.97-48.14c5.46-14.82,20.07-2.87,27.14,3.91,23.96,22.98,28.95,59.87,11.97,88.53-7.54,12.73-18.21,21.13-30.96,28.23l-.1,117.65c-.85,5.38-3.8,7.73-8.25,10.11h-43.42Z" style="fill: #013978;"/>
    </g>
  </g>
</svg>