<?xml version="1.0" encoding="UTF-8"?>
<svg id="Layer_2" data-name="Layer 2" xmlns="http://www.w3.org/2000/svg" viewBox="0 0 163.78 182.81">
  <g id="Layer_1-2" data-name="Layer 1">
    <path d="M83.32,0l73.29,20.55c4.68,1.03,4.86,5.35,5.36,9.3,3.46,27.41,2.52,66.92-7.69,92.77-10.22,25.88-37.85,48.6-63.63,57.93-8.34,3.02-9.19,3.02-17.53,0-25.78-9.33-53.41-32.05-63.63-57.93C-.71,96.77-1.65,57.28,1.81,29.86c.5-3.95.68-8.27,5.36-9.3L80.46,0h2.86ZM118.28,51.56c-1.81.18-3.06,1.33-4.4,2.42l-38.96,38.97-20.2-20.2c-2.6-2.06-4.76-2.72-7.85-1.04-1.65.89-7.55,6.83-8.31,8.49-1.17,2.57-.83,4.83,1.13,6.86l31.64,31.63c1.81,1.3,4.27,1.43,6.26.54l52.49-52.26c.99-1.61,1.26-3.7.6-5.49s-7.67-8.75-9.48-9.46c-.93-.37-1.91-.56-2.93-.46Z" style="fill: #013978;"/>
  </g>
</svg>