<?xml version="1.0" encoding="UTF-8"?>
<svg id="Layer_2" data-name="Layer 2" xmlns="http://www.w3.org/2000/svg" viewBox="0 0 512 302.84">
  <g id="Layer_1-2" data-name="Layer 1">
    <g>
      <path d="M0,118c3.13-5.74,5.77-9.33,12.56-10.94,29.79-2.56,64.77,3.21,93.94-.06,16.56-1.86,19.82-25,2.76-28.76-25.43-2.73-55.98,2.82-80.78-.22-12.28-1.5-18-16.42-9.5-25.55.72-.78,7.09-4.47,7.53-4.47h21.5c1.57-11.11-3.71-35.27,3.97-43.53.72-.78,7.09-4.47,7.53-4.47h275.5v93.5c0,3.72,8.3,11.21,12.56,11.44,38.33,2.38,80.04-2.94,117.97.03,17.05,1.34,35.69,11.21,42.64,27.36l3.82,11.68v102c-7.12,17.29-26.49,8.78-41.06,11.44-11.91,54.07-86.63,62.35-109.12,11.24-1.12-2.55-2.85-11.01-4.45-11.55l-148.92-.18-2.97,1.03c-13.85,60.11-98.5,59.35-112.41-.53-10.93-2.47-32.17,3.41-40.59-4.41-.78-.72-4.47-7.09-4.47-7.53v-48.5H11.5c-.4,0-6.41-3.41-7.02-3.98-2.15-1.99-2.28-5.15-4.48-7.02v-8c3.17-5.95,6.3-9.89,13.48-11.02l138.96-.04c16.87-4.02,16.87-25.85,0-29.88l-138.96-.04c-7.18-1.13-10.3-5.08-13.48-11.02v-8ZM145.76,218.26c-35.25,4.6-29.35,58.7,7.64,54.62,34.26-3.77,29.61-59.49-7.64-54.62ZM410.76,218.26c-35.25,4.6-29.35,58.7,7.64,54.62,34.26-3.77,29.61-59.49-7.64-54.62Z" style="fill: #013978;"/>
      <path d="M447,75h-82V3c29.51,6.07,49.8,22.76,66.81,46.69,5.54,7.8,11.12,16.68,15.19,25.31Z" style="fill: #013978;"/>
    </g>
  </g>
</svg>