<?xml version="1.0" encoding="UTF-8"?>
<svg id="Layer_2" data-name="Layer 2" xmlns="http://www.w3.org/2000/svg" viewBox="0 0 306.92 289.45">
  <g id="Layer_1-2" data-name="Layer 1">
    <path d="M41.16,236.27c-21.53,1.66-39.43-15.17-41.16-36.38V36.41C1.6,16.77,16.7,1.74,36.27,0h234.35c19.94,1.85,34.84,17.14,36.31,37.12v162.06c-1.41,19.17-15,34.36-34.09,37.09l-154.79.16-55.55,50.09c-8.21,6.25-19.25,2-21-8.21-2.15-12.6.91-29.03-.33-42.04ZM151.76,54.19c-11.94,1.75-15.44,22.43-21.55,30.94-10.86,4.57-38.22-.44-38,17.28.11,9.13,17.87,20.42,22.94,27.91.4,9.11-7.28,27.24-2.76,34.97,2.98,5.1,8.55,7.41,14.31,6.31,6.78-1.3,17.82-10.48,24.72-12.74.77-.25,1.47-.73,2.35-.57,11.52,3.64,29.99,22.42,40.11,7.87,1.09-1.56,1.96-3.42,2.18-5.33.98-8.48-4.59-21.54-4.31-30.51,5.35-7.88,22.59-18.28,22.8-28.04.38-17.26-26.52-12.92-37.45-16.83-6.98-8.71-10.52-33.44-25.33-31.27Z" style="fill: #013978;"/>
  </g>
</svg>