<?xml version="1.0" encoding="UTF-8"?>
<svg id="Layer_2" data-name="Layer 2" xmlns="http://www.w3.org/2000/svg" viewBox="0 0 374.9 266.83">
  <g id="Layer_1-2" data-name="Layer 1">
    <g>
      <path d="M374.83,156.14c-.33,9.84-5.68,50.04-9.38,57.68-6.01,12.41-19.1,17.57-32.41,17.42-12.65,47.74-89.88,47.03-84.24-8.76,4.1-40.51,65.18-58.95,82.2-19.94,3.81,8.73-.16,16.61,13.04,11.85,4.43-1.6,8-6.17,9.21-10.57,1.79-6.53,6.92-48.95,5.69-54.14-1.71-7.21-20.85-16.48-27.48-17.96-14.13-3.16-34.71,1.78-49.51-1.05-7.13-2.67-4.2-14.1.18-14.1h41.04l.79-1.5c-2.93-17-2.86-35.4-5.66-52.27-1.68-10.12-2.63-15.31-14.21-16.57-12.65-1.38-27.67.91-40.56.07l-20.09,157.64c-2.3,16.22-15.56,28.1-31.76,29.8-22.31,2.34-48.17-1.51-70.85.07-12.99,40.49-75.87,47.42-83.31.04-10.29.1-19.96.94-28.81-5.26-20.79-14.56-6.64-44.52-6.35-65.11H5.87c-5.69,0-10.33-13.53,1.54-15.32,14.37-2.17,70.03-1.89,84.96-.1,11.13,1.34,11.06,13.83,2.12,15.36l-56.63.16c-1.17,12.04-4.79,25.72-5.23,37.65-.71,19.51,9.53,17.52,25.52,17.1,10.5-44.96,80.57-52.06,84.38.11l69.92-.07c5.85-.87,12.82-6.6,14.93-12.19,8.45-60.32,16.54-120.92,22.7-181.43-1.04-5.77-6.93-9.76-12.62-10.1l-165.56.11c-21.63,2.72-15.4,21.55-20.06,34.17-2.87,7.76-14.1,6.17-14.77-2.43C35.51,26.41,47.42,1.92,69.59,0l172.88.11c14.87,2.75,24.39,16.51,23.17,31.43,22.87,2.4,56.33-9.41,65.92,19.46l7.9,66.86c14.57,8.9,33.54,12.36,35.37,33.15.14,1.6.05,3.5,0,5.13ZM294.09,195.91c-38.4,2.14-41.52,63.25-.45,54.57,32.64-6.9,34.95-56.49.45-54.57ZM102.83,196.65c-39,1.93-41.73,63.49-.45,54.57,31.7-6.85,35.05-56.28.45-54.57Z" style="fill: #013978;"/>
      <path d="M22.88,70.55l97.32-.17c8.45,1.07,8.12,13.38.01,14.7-29.31-.02-68.31.98-96.04-.01-8.1-.29-8.57-11.88-1.29-14.51Z" style="fill: #013978;"/>
      <path d="M46.06,122.17c-4.82-4.83-1.48-11.99,5.25-12.93,12.37-1.74,66.96-1.84,79.15-.02,8.81,1.32,10.12,13.96-2.23,15.39-16.2,1.88-58.35,1.71-74.75.04-2.37-.24-5.68-.73-7.42-2.48Z" style="fill: #013978;"/>
    </g>
  </g>
</svg>