<?xml version="1.0" encoding="UTF-8"?>
<svg id="Layer_2" data-name="Layer 2" xmlns="http://www.w3.org/2000/svg" viewBox="0 0 301.32 383.29">
  <g id="Layer_1-2" data-name="Layer 1">
    <g>
      <path d="M130.5,383.29c-103.5-8.03-164.69-121.67-110.11-212.07L133.91,3.07c3.98-4.31,9.35-4.11,12.64.77l61.2,91.25c.42.28,3.12-3.58,3.6-4.25,4.54-6.3,13.03-22.18,17.76-26.44,3.25-2.93,8.06-3.22,10.91.35,15.89,25.95,37.91,51.39,52.6,77.75,15.61,28,9.67,60.95-13.47,82.62,9.06,79.78-47.49,151-127.97,157.47l-1.19.69h-19.5ZM264.74,235.08c-51.34,24.65-108.32-19.86-95.02-75.76,4.66-19.59,20.23-33.73,29.05-51.07l-59.26-87.26L31.37,182.18c-54.03,96.48,34.48,210.86,142.19,181.59,56.57-15.37,95.03-70.28,91.18-128.68ZM234.01,83.13l-43.65,65.35c-17.5,28.63-2.8,67.22,29.57,76.32,45.46,12.78,82.13-34.19,59.2-75.55-9.58-17.28-25.19-38-36.71-54.68-.73-1.05-7.82-11.83-8.41-11.43Z" style="fill: #013978;"/>
      <path d="M55.28,182.09c5.46-1.25,10.43,1.82,10.01,7.69-.24,3.42-5.72,9.81-7.67,13.36-23.32,42.22-8.37,95.85,33.65,119.37,6.01,3.36,13.05,4.89,18.43,7.8,7.76,4.2,4.46,15.72-6.24,13.71-6.66-1.25-19.53-8.23-25.4-12.07-44.52-29.2-59.59-87.92-34.21-135.06,1.85-3.44,7.89-13.99,11.42-14.79Z" style="fill: #013978;"/>
      <path d="M128.8,335.54c10.66-.84,11.33,16.73-.89,14.77-7.95-1.27-7.68-14.1.89-14.77Z" style="fill: #013978;"/>
      <path d="M201.55,152.91c5.77-1.17,9.79,2.55,9.15,8.36-.93,8.42-4.4,10.62-1.24,20.83,2.37,7.65,6.65,8.77,11.07,13.65,6.15,6.78-1.21,16.41-9.89,11.37-9.96-5.8-17.93-21.69-17.96-33.04-.01-5.57,2.36-19.84,8.86-21.16Z" style="fill: #013978;"/>
      <path d="M240.51,213.14c-6.35,7.18-18.18-2.28-11.33-10.19,6.3-7.27,17.78,2.89,11.33,10.19Z" style="fill: #013978;"/>
    </g>
  </g>
</svg>